<?xml version="1.0" encoding="utf-8" ?><svg xmlns="http://www.w3.org/2000/svg" xmlns:xlink="http://www.w3.org/1999/xlink" width="362" height="362" viewBox="0 0 362 362"><path fill="#BC8C4C" d="M280.008 71.375C288.539 71.1844 297.628 71.0766 305.987 72.2162C316.668 73.6724 316.864 83.0112 315.908 91.5286C315.719 93.2056 315.678 94.622 315.342 96.2949C339.025 92.4057 340.3 102.313 339.859 123.064C339.664 132.221 339.088 141.82 339.067 150.954L338.815 213.223C338.817 227.4 339.336 241.68 338.795 255.954C338.262 262.21 338.89 271.254 336.782 277.011C335.286 281.097 323.957 278.458 321.107 277.865L308.182 275.167C294.258 272.312 282.202 270.22 268.271 268.32C240.664 264.555 222.283 273.289 196.972 281.365C192.198 282.888 181.975 285.732 177.085 285.505C167.859 285.077 157.125 280.027 148.538 276.681C142.335 274.264 135.316 271.128 128.844 269.683C107.654 264.953 85.4631 268.524 64.5542 272.35C64.5397 272.356 64.5252 272.362 64.5108 272.368C59.8195 273.374 55.0993 274.273 50.3967 275.227C43.9452 276.539 37.3974 277.843 30.8823 278.743C26.9074 279.292 22.4098 279.52 20.9705 274.927C19.9434 271.649 19.5765 268.075 19.536 264.648C19.3897 252.276 19.6621 239.802 19.8534 227.444C19.9653 214.635 19.9997 201.825 19.9568 189.015L19.9541 136.958C19.9543 127.882 19.8811 118.657 20.0524 109.59C20.1182 106.107 20.687 102.073 22.2014 98.9268C28.8639 94.1814 35.8367 95.7124 43.3869 95.8522C42.9756 91.8881 42.913 78.8404 46.0809 76.4508C54.6284 70.0029 70.3771 71.7771 80.2995 71.835C88.482 71.8827 96.605 72.0197 104.345 73.1453C131.624 77.1127 159.387 91.6171 179.097 110.786C184.137 105.765 192.797 99.561 198.71 95.6211C224.267 78.5922 249.4 72.0308 280.008 71.375ZM56.4305 85.3914C56.9765 89.3524 56.5733 98.4341 56.5424 102.866L56.434 136.555L56.5213 203.469C56.5918 213.71 56.9951 224.739 56.9255 234.871C58.8778 235.142 64.1132 235.909 65.9286 235.752C91.9614 233.499 121.539 220.969 145.846 212.15C152.382 209.827 158.953 207.375 165.574 205.335C168.142 204.543 171.021 203.545 173.63 203.076C173.191 199.223 173.364 194.418 173.371 190.458L173.411 170.882L173.439 140.882C173.444 135.015 173.329 128.633 173.574 122.801C147.001 98.5636 123.157 87.1892 86.9219 85.5138C78.677 85.1326 69.7139 84.9879 61.4545 85.343C61.1536 85.356 60.8528 85.371 60.5521 85.388C59.0745 85.4381 57.903 85.469 56.4305 85.3914ZM39.8815 109.578C37.7576 109.876 35.932 110.172 33.8722 110.873C34.1322 118.056 33.6671 127.834 33.6116 135.355L33.425 186.485L33.0358 240.125C33.0044 245.143 33.0178 250.162 33.0758 255.18C33.1327 258.012 33.4139 262.88 33.2582 265.571C38.9813 263.639 50.6957 261.42 57.1206 260.269C84.87 255.296 116.211 250.769 143.603 259.32C153.305 262.349 171.927 272.621 181.154 272.33C190.487 272.035 210.398 260.656 220.396 258.216C249.263 251.171 283.89 256.41 312.558 262.267C314.321 262.628 324.339 265.003 325.189 265.413L325.475 265.213C325.687 260.124 325.525 254.123 325.597 248.934L325.976 210.272C326.19 181.325 325.942 152.377 325.235 123.437C325.002 119.082 324.369 113.906 324.227 109.801C321.539 109.453 318.437 109.504 315.694 109.482C316.454 113.14 316.496 121.329 316.502 125.101L316.519 141.678C316.557 164.155 316.446 186.631 316.186 209.106C316.058 219.336 316.478 229.651 316.432 239.886C316.424 241.719 315.84 243.651 315.06 245.306C304.594 243.84 290.078 233.989 280.422 228.772C271.866 224.148 267.727 222.764 258.598 219.596C229.8 209.6 205.761 208.491 176.227 215.909C169.767 217.593 163.377 219.533 157.071 221.724C132.208 230.327 75.0579 253.122 51.2962 250.141C49.354 249.898 46.5423 249.521 45.289 247.823C44.3806 246.593 43.7209 244.956 43.5515 243.434C42.8726 237.335 43.3665 230.829 43.4002 224.69C43.3982 215.435 43.3416 206.18 43.2305 196.926C42.9662 167.384 41.5284 139.187 43.265 109.421L39.8815 109.578ZM302.895 224.774C302.316 221.317 302.275 212.168 302.22 208.347C302.053 198.773 301.973 189.197 301.979 179.621L302.239 85.277C297.33 85.3888 292.488 85.2036 287.554 85.3857C253.252 85.945 217.412 90.9294 192.652 116.964C191.09 118.606 187.467 122.253 187.01 124.318C185.849 129.57 185.982 137.182 185.901 142.613C185.72 155.429 185.698 168.247 185.833 181.064C185.874 186.787 186.238 195.168 185.973 200.687C197.721 198.6 213.503 198.004 225.312 198.441C247.688 199.144 267.815 207.311 287.618 216.948C291.161 218.672 299.952 222.676 302.895 224.774Z"/><path fill="#BC8C4C" d="M108.792 168.286C115.076 167.444 122.314 170.094 126.42 174.94C129.762 178.886 131.771 185.209 127.073 188.995C124.701 190.906 121.725 191.908 118.689 191.635C112.312 191.077 105.647 191.786 99.4772 189.881C95.4563 188.639 97.1272 181.309 98.2783 178.458C100.227 173.631 104.01 170.285 108.792 168.286Z"/><path d="M178.479 12.0602C181.971 11.9377 181.424 14.4567 180.334 16.9077C177.299 17.1909 177.658 13.9608 178.479 12.0602Z"/></svg>