<?xml version="1.0" encoding="utf-8" ?><svg xmlns="http://www.w3.org/2000/svg" xmlns:xlink="http://www.w3.org/1999/xlink" width="908" height="234" viewBox="0 0 908 234"><defs><linearGradient id="gradient_0" gradientUnits="userSpaceOnUse" x1="156.39091" y1="17.551123" x2="158.73869" y2="176.93803"><stop offset="0" stop-color="#BFA93D"/><stop offset="1" stop-color="#92AF57"/></linearGradient></defs><path fill="url(#gradient_0)" d="M34.549 39.814C33.3357 27.1974 34.6125 19.7359 49.0292 18.7638C85.7341 16.2889 121.43 23.8772 150.342 47.8528C153.08 50.1606 155.726 52.5751 158.274 55.0906C184.692 29.7329 218.95 17.2619 255.374 18.6088C268.686 19.1011 281.5 16.9919 280.996 33.8474C280.916 36.3406 280.788 38.8321 280.613 41.3205C305.467 38.7588 303.613 49.8855 303.903 69.9558C304.078 83.8381 304.074 97.722 303.889 111.604C303.804 130.166 303.541 148.727 303.098 167.285C302.892 176.177 302.409 185.318 302.217 194.317C302.734 214.016 283.172 205.289 271.255 202.389C244.777 195.945 215.774 191.688 189.59 202.458C170.484 210.318 156.38 217.274 136.203 206.136C109.001 191.119 81.6305 194.967 52.651 201.23C42.7285 203.257 25.2104 208.51 15.9188 205.239C12.5653 204.058 12.9309 183.154 12.4778 179.466C12.6926 164.675 11.2186 46.1131 14.2066 41.732C17.4035 40.2298 30.5577 39.8869 34.549 39.814ZM280.552 175.752C266.95 169.893 258.056 164.273 245.479 158.228C228.669 150.232 210.416 145.715 191.815 144.947C179.553 144.473 167.289 145.848 155.436 149.024C119.475 158.356 86.8258 176.676 49.343 179.254C46.0143 179.483 38.6523 180.534 35.9853 178.356C33.0794 170.879 35.2619 118.685 35.1 106.431C34.8955 90.9434 34.2525 68.7248 34.5312 53.0035C31.9633 53.0442 27.5841 52.9152 25.5212 54.3662C23.7627 58.9 24.9743 99.5911 24.9934 107.801L25.1836 193.995C38.6933 190.382 49.2196 189.128 62.0004 186.72C104.365 178.74 118.544 185.33 155.596 201.639C168.577 198.274 177.825 192.961 190.451 189.173C225.177 178.754 256.868 185.923 290.789 194.681C291.079 179.692 292.155 59.489 289.405 55.1413C287.873 52.7189 283.393 52.1585 280.788 51.6756C281.709 83.162 281.933 114.665 281.46 146.161C281.293 156.018 280.772 165.905 280.552 175.752ZM251.393 30.7885C219.981 31.8567 190.376 38.9593 167.57 62.5907C166.184 64.027 164.801 65.5844 163.643 67.2117C163.456 77.4476 163.838 87.683 163.947 97.9243L164.071 135.772C177.729 133.241 190.688 132.989 204.509 134.15C221.394 137.019 233.025 139.947 248.783 147.285C255.686 150.5 262.939 154.668 269.554 157.725C269.348 115.376 270.086 73.8323 269.036 31.4287C263.808 30.8208 256.679 30.6987 251.393 30.7885ZM56.5878 30.3175C53.0295 30.6721 50.2506 30.8271 46.9939 32.4762C44.8223 45.7516 46.3242 70.6035 46.5472 85.0588C46.971 112.533 45.7718 141.622 46.9252 168.897C58.5138 166.765 66.5658 166.082 78.3944 162.921C93.657 158.842 106.319 152.737 120.701 147.758C131.406 143.573 141.438 140.706 152.537 137.906C151.68 117.215 152.362 96.4909 151.696 75.7947C151.594 72.6205 151.565 69.449 151.654 66.274C128.385 43.91 97.3909 29.2911 64.6981 29.9619C63.5811 29.9848 57.3568 30.1291 56.5878 30.3175Z"/><path fill="#BC8C4C" d="M280.613 41.3205C305.467 38.7588 303.613 49.8855 303.903 69.9558C304.078 83.8381 304.074 97.722 303.889 111.604C303.804 130.166 303.541 148.727 303.098 167.285C302.892 176.177 302.409 185.318 302.217 194.317C302.734 214.016 283.172 205.289 271.255 202.389C244.777 195.945 215.774 191.688 189.59 202.458C170.484 210.318 156.38 217.274 136.203 206.136C109.001 191.119 81.6305 194.967 52.651 201.23C42.7285 203.257 25.2104 208.51 15.9188 205.239C12.5653 204.058 12.9309 183.154 12.4778 179.466C12.6926 164.675 11.2186 46.1131 14.2066 41.732C17.4035 40.2298 30.5577 39.8869 34.549 39.814C34.984 44.5636 35.5876 48.2786 34.5312 53.0035C31.9633 53.0442 27.5841 52.9152 25.5212 54.3662C23.7627 58.9 24.9743 99.5911 24.9934 107.801L25.1836 193.995C38.6933 190.382 49.2196 189.128 62.0004 186.72C104.365 178.74 118.544 185.33 155.596 201.639C168.577 198.274 177.825 192.961 190.451 189.173C225.177 178.754 256.868 185.923 290.789 194.681C291.079 179.692 292.155 59.489 289.405 55.1413C287.873 52.7189 283.393 52.1585 280.788 51.6756C280.581 48.5995 280.651 44.4758 280.613 41.3205Z"/><path fill="#BC8C4C" d="M92.5634 105.132C99.5659 104.565 105.539 105.351 109.559 111.826C113.491 118.159 112.193 129.52 102.306 126.921C96.741 125.875 86.1559 129.24 83.5843 125.092C79.8962 119.143 88.232 108.2 92.5634 105.132Z"/><path fill="#BC8C4C" d="M763.066 93.5702C763.228 93.5472 763.39 93.5267 763.552 93.5087C766.13 93.2247 770.707 93.3659 771.074 96.5991C769.378 101.415 762.452 101.087 758.444 101.001C759.902 102.946 761.22 104.779 762.495 106.863C769.562 118.416 760.685 129.859 750.555 135.547C746.284 134.94 738.29 134.406 734.201 136.036C731.98 136.921 729.703 139.238 730.99 141.828C736.673 146.4 753.474 143.268 761.245 146.371C781.389 154.415 769.47 174.149 755.245 181.108C749.234 182.798 743.574 182.861 737.388 182.746C710.836 182.252 711.281 172.918 724.714 154.383C713.052 146.718 719.386 141.938 726.487 133.596C721.267 128.132 716.006 120.281 717.771 112.427C718.874 107.619 721.857 103.452 726.054 100.857C734.665 95.5062 747.216 96.3588 756.696 98.5835C758.771 96.3249 760.41 95.0676 763.066 93.5702ZM762.999 166.9C758.753 155.185 747.207 154.398 736.234 155.255C730.718 157.453 721.508 162.388 724.628 169.527C728.579 178.566 741.606 179.885 750.058 178.982C756.823 175.617 759.981 173.966 762.999 166.9ZM745.559 132.491C753.219 124.834 752.466 118.536 752.679 108.428C747.769 101.387 746.175 98.6428 736.988 99.3877C725.064 110.347 725.848 130.411 745.559 132.491Z"/><path fill="#BC8C4C" d="M677.782 95.8648C694.897 94.4854 709.877 107.269 711.198 124.383C712.518 141.496 699.677 156.426 682.552 157.686C665.511 158.941 650.665 146.182 649.351 129.152C648.037 112.122 660.75 97.2374 677.782 95.8648ZM684.032 154.21C689.398 151.88 693.607 147.5 695.719 142.046C701.148 128.234 696.107 98.8281 676.326 99.6972C662.465 110.199 658.147 132.951 668.763 146.829C671.787 150.793 676.27 153.386 681.215 154.034C682.16 154.155 683.079 154.231 684.032 154.21Z"/><path fill="#BC8C4C" d="M472.259 96.3178C479.268 95.9702 488.35 95.2426 493.845 100.324C503.926 109.647 498.75 132.578 499.69 146.319C502.021 150.487 505.669 151.42 505.869 154.951C504.335 158.607 498.579 159.056 495.198 158.197C491.022 157.137 489.665 154.696 487.698 151.191C479.156 157.718 469.664 159.902 459.459 156.246L456.715 153.041C442.476 132.92 473.866 125.169 487.267 123.016C487.06 117.848 486.886 110.57 483.955 106.245C476.869 95.7926 459.487 108.754 452.539 113.555C452.924 112.962 453.313 112.372 453.706 111.785C458.322 104.898 463.512 98.0471 472.259 96.3178ZM470.234 149.782C474.501 153.418 482.695 149.377 487.404 147.649C487.213 141.188 487.887 133.48 486.679 127.108C486.496 126.144 485.758 125.697 484.808 125.498C473.782 129.881 458.322 136.161 470.234 149.782Z"/><path fill="#BC8C4C" d="M589.088 96.7467C596.094 95.4662 605.578 97.6124 610.624 102.754C613.438 105.622 620.244 116.458 615.254 118.986C606.849 123.245 588.143 121.309 578.638 120.978C577.379 128.86 577.449 135.849 583.136 142.122C593.841 153.931 605.785 149.313 616.007 140.193C617.068 139.166 618.214 138.149 619.31 137.152C611.461 155.018 594.406 166.456 576.315 152.946C569.545 147.842 565.071 140.266 563.872 131.875C561.471 115.136 571.588 99.1166 589.088 96.7467ZM577.506 117.229L590.838 117.042L603.819 116.959C602.923 108.424 601.497 98.672 590.438 99.8039C581.556 103.033 579.153 108.335 577.506 117.229Z"/><path fill="#BC8C4C" d="M864.572 95.8971L864.759 95.8929C873.711 95.7269 881.641 97.8602 888.402 104.122C893.858 108.262 897.658 120.225 887.306 120.489C876.807 120.758 864.877 120.783 854.375 120.63C854.363 125.008 854.196 130.625 854.666 134.879C868.097 154.464 872.021 154.557 890.592 141.823C892.835 140.207 895.046 138.546 897.223 136.842C891.959 147.352 887.951 155.386 875.184 158.004C868.166 159.385 860.886 157.936 854.932 153.974C834.961 140.769 838.224 101.127 864.572 95.8971ZM855.308 117.032L869.066 117.026L882.361 116.986C881.054 107.751 880.178 100.987 869.291 99.833C859.428 101.057 856.943 108.359 855.308 117.032Z"/><path fill="#BC8C4C" d="M786.271 96.6801C788.78 96.3683 794.056 95.8606 794.021 99.5063C793.874 114.567 791.204 130.273 796.171 144.879C798.109 150.579 802.141 154.399 808.431 152.156C811.21 151.165 815.445 146.306 816.397 143.481C819.721 133.628 820.473 122.107 819.519 111.797C819.407 110.739 815.741 102.548 815.094 100.97C816.085 97.7747 822.382 96.5587 825.262 96.5744C826.744 96.5688 828.164 97.1731 829.187 98.2454C832.633 101.842 832.196 110.232 832.066 114.893C831.556 120.795 830.993 126.553 830.857 132.855C830.732 138.614 833.932 149.138 832.205 154.726C831.67 156.455 826.641 157.592 824.808 158.097C818.837 155.863 819.503 154.251 818.772 148.314C811.967 155.251 800.442 161.112 790.938 156.149C777.015 148.879 782.295 124.709 780.713 112.017C780.129 107.331 779.098 103.962 777.592 99.4372C780.199 98.242 783.493 97.3437 786.271 96.6801Z"/><path fill="#BC8C4C" d="M354.13 72.8664C354.402 72.8378 354.674 72.8134 354.946 72.7932C363.33 72.1748 373.238 73.0423 381.7 73.1919C387.923 73.3019 394.969 73.1735 401.042 74.3074C406.373 75.3027 414.316 82.8824 409.22 88.5006C406.574 88.7683 397.713 78.4984 393.632 77.5043C392.215 77.1589 385.105 74.5543 384.569 77.9033C382.556 90.4751 380.408 140.903 384.265 150.338L387.419 156.474C383.216 156.486 366.5 157.026 363.545 155.482C363.384 153.393 367.205 149.427 368.81 147.129C368.839 126.584 370.44 105.583 369.307 84.9213C369.144 82.7048 368.847 79.1721 366.841 77.768C358.866 72.1856 346.162 87.4738 342.021 92.4579C342.117 89.9047 342.37 86.5802 342.357 84.0623C342.299 73.1581 344.549 73.5747 354.13 72.8664Z"/><path fill="#BC8C4C" d="M636.169 66.9961C637.098 66.8582 637.211 66.8745 638.071 67.2536C641.267 73.382 639.238 137.754 640.795 150.938C642.7 151.789 645.408 152.639 646.214 154.512L645.861 155.394C643.489 156.957 635.952 156.761 632.784 156.84C630.531 156.917 626.464 157.287 624.603 156.45C621.995 152.956 627.676 146.498 627.317 141.47C625.895 121.589 627.012 101.684 626.201 81.8026C626.088 79.0554 624.283 74.6928 624.835 72.0775C626.346 69.5271 633.362 67.7739 636.169 66.9961Z"/><path fill="#BC8C4C" d="M557.653 95.8359C559.404 95.79 561.305 95.5255 562.49 96.9419C562.309 99.8339 559.521 104.377 557.975 106.906C553.778 113.776 551.281 121.495 548.055 128.899C543.518 139.311 539.317 148.554 536.329 159.599C528.708 149.287 519.189 126.029 513.181 113.321C510.433 107.798 507.505 102.366 504.402 97.0343C510.854 97.1784 517.678 97.0876 524.161 97.1097C526.238 111.935 532.262 127.445 539.482 140.516C542.993 130.204 547.598 120.22 551.051 109.899C552.129 106.678 551.106 100.563 553.232 97.4947C553.948 96.4603 556.49 96.066 557.653 95.8359Z"/><path fill="#BC8C4C" d="M442.213 97.1358C446.462 96.7478 451.684 99.0868 449.596 103.322C447.179 108.224 434.445 108.271 429.403 109.955C428.3 120.532 427.846 132.329 428.398 143.003C428.731 149.453 431.083 150.944 435.687 154.706C429.104 156.138 420.416 157.033 413.752 156.088C412.98 154.33 414.308 152.408 414.768 150.468C418.443 134.986 415.078 118.248 412.703 102.866C413.686 98.5414 423.482 96.0449 426.577 98.2274C428.281 99.4291 428.151 106.64 428.225 108.961C429.055 107.587 429.942 106.248 430.886 104.949C434.094 100.471 436.76 98.0385 442.213 97.1358Z"/></svg>